<svg width="52" height="40" viewBox="0 0 52 40" fill="none" xmlns="http://www.w3.org/2000/svg">
<path d="M17.6357 29.3022H16.891H11.354V31.8729H34.0931V29.4757L30.3313 29.3012H17.6357V29.3022ZM20.9606 30.8803H13.1261V30.4001H20.9606V30.8803Z" fill="#4992E6"/>
<path d="M0 39.7516H10.1467V23.9681H0V39.7516ZM5.20207 39.0704C4.87898 39.0704 4.61688 38.8271 4.61688 38.5293C4.61688 38.2284 4.88 37.987 5.20207 37.987C5.52475 37.987 5.78665 38.2284 5.78665 38.5293C5.78767 38.8271 5.52475 39.0704 5.20207 39.0704ZM5.29998 24.6214C5.4346 24.6214 5.54392 24.7208 5.54392 24.8464C5.54392 24.9718 5.43358 25.0733 5.29998 25.0733C5.16536 25.0733 5.05501 24.9709 5.05501 24.8464C5.05399 24.7208 5.16413 24.6214 5.29998 24.6214ZM3.83955 25.3789H6.75633V25.5962H3.83955V25.3789ZM1.62809 26.3722L8.51843 26.3682V37.2111C5.88292 37.2255 2.93473 37.2351 1.62809 37.2255V26.3722Z" fill="#4992E6"/>
<path d="M18.1842 2.29097H46.0146V10.8779H48.4011V0.0849609H15.799V11.312H18.1842V2.29097Z" fill="#4992E6"/>
<path d="M31.775 21.671H36.1916V20.6443H34.8211V19.4014H36.1916V16.5571H31.775V21.671Z" fill="#4992E6"/>
<path d="M37.4447 11.8848V32.0455H51.9764V11.8848H37.4447ZM45.0182 31.0332C44.6308 31.0332 44.3179 30.7419 44.3179 30.3854C44.3179 30.0274 44.6306 29.7379 45.0182 29.7379C45.4057 29.7379 45.7184 30.0272 45.7184 30.3854C45.7184 30.7419 45.4055 31.0332 45.0182 31.0332ZM49.8757 28.7017H39.546V13.8267H49.8778L49.8757 28.7017Z" fill="#4992E6"/>
<path d="M6.15537 14.4326H28.3756V26.7497H11.354V28.5618H30.3353V12.6221H4.19684V22.9049H6.15537V14.4326Z" fill="#4992E6"/>
</svg>
