<svg width="47" height="33" viewBox="0 0 47 33" fill="none" xmlns="http://www.w3.org/2000/svg">
<path d="M47 27.846V0.0849609H0V27.846H17.8403V29.9125C12.8086 30.1334 9.33183 30.599 9.33183 31.1416C9.33183 31.8965 16.0703 32.5097 24.3846 32.5097C32.6991 32.5097 39.4377 31.8964 39.4377 31.1416C39.4377 30.5383 35.1319 30.0279 29.1606 29.8467V27.8461H47V27.846ZM3.08638 25.4669V2.22649H43.9122V25.4669H3.08638ZM23.5001 3.27347L28.5297 7.92488L27.5936 8.78986L23.5001 5.00391L19.4071 8.78986L18.4706 7.92488L23.5001 3.27347ZM27.5934 18.8656L28.5296 19.7313L23.4999 24.3817L18.4704 19.7299L19.4069 18.8648L23.4999 22.6513L27.5934 18.8656Z" fill="#4992E6"/>
</svg>
