<svg width="219" height="60" viewBox="0 0 219 60" fill="none" xmlns="http://www.w3.org/2000/svg">
<path d="M88.584 11.4C91.1227 11.4 93.12 12.0067 94.576 13.22C96.032 14.4333 96.76 16.104 96.76 18.232C96.76 20.36 96.032 22.0307 94.576 23.244C93.12 24.4573 91.1227 25.064 88.584 25.064H83.74V31H80.94V11.4H88.584ZM88.5 22.628C90.2733 22.628 91.6267 22.2547 92.56 21.508C93.4933 20.7427 93.96 19.6507 93.96 18.232C93.96 16.8133 93.4933 15.7307 92.56 14.984C91.6267 14.2187 90.2733 13.836 88.5 13.836H83.74V22.628H88.5Z" fill="#405063"/>
<path d="M102.812 18.652C103.278 17.7933 103.969 17.14 104.884 16.692C105.798 16.244 106.909 16.02 108.216 16.02V18.624C108.066 18.6053 107.861 18.596 107.6 18.596C106.144 18.596 104.996 19.0347 104.156 19.912C103.334 20.7707 102.924 22.0027 102.924 23.608V31H100.236V16.16H102.812V18.652Z" fill="#405063"/>
<path d="M117.748 31.168C116.273 31.168 114.948 30.8413 113.772 30.188C112.596 29.5347 111.672 28.6387 111 27.5C110.346 26.3427 110.02 25.036 110.02 23.58C110.02 22.124 110.346 20.8267 111 19.688C111.672 18.5307 112.596 17.6347 113.772 17C114.948 16.3467 116.273 16.02 117.748 16.02C119.222 16.02 120.538 16.3467 121.696 17C122.872 17.6347 123.786 18.5307 124.44 19.688C125.112 20.8267 125.448 22.124 125.448 23.58C125.448 25.036 125.112 26.3427 124.44 27.5C123.786 28.6387 122.872 29.5347 121.696 30.188C120.538 30.8413 119.222 31.168 117.748 31.168ZM117.748 28.816C118.7 28.816 119.549 28.6013 120.296 28.172C121.061 27.724 121.658 27.108 122.088 26.324C122.517 25.5213 122.732 24.6067 122.732 23.58C122.732 22.5533 122.517 21.648 122.088 20.864C121.658 20.0613 121.061 19.4453 120.296 19.016C119.549 18.5867 118.7 18.372 117.748 18.372C116.796 18.372 115.937 18.5867 115.172 19.016C114.425 19.4453 113.828 20.0613 113.38 20.864C112.95 21.648 112.736 22.5533 112.736 23.58C112.736 24.6067 112.95 25.5213 113.38 26.324C113.828 27.108 114.425 27.724 115.172 28.172C115.937 28.6013 116.796 28.816 117.748 28.816Z" fill="#405063"/>
<path d="M127.261 36.6C126.608 36.6 126.001 36.5253 125.441 36.376C124.881 36.2267 124.415 36.0027 124.041 35.704L124.909 33.632C125.469 34.0987 126.197 34.332 127.093 34.332C127.803 34.332 128.344 34.108 128.717 33.66C129.109 33.2307 129.305 32.5867 129.305 31.728V16.16H131.993V31.672C131.993 33.2027 131.583 34.4067 130.761 35.284C129.94 36.1613 128.773 36.6 127.261 36.6ZM130.649 13.304C130.127 13.304 129.688 13.136 129.333 12.8C128.997 12.464 128.829 12.0533 128.829 11.568C128.829 11.0827 128.997 10.672 129.333 10.336C129.688 9.98132 130.127 9.80399 130.649 9.80399C131.172 9.80399 131.601 9.97199 131.937 10.308C132.292 10.6253 132.469 11.0267 132.469 11.512C132.469 12.016 132.292 12.4453 131.937 12.8C131.601 13.136 131.172 13.304 130.649 13.304Z" fill="#405063"/>
<path d="M150.534 23.664C150.534 23.8693 150.516 24.14 150.478 24.476H138.438C138.606 25.7827 139.176 26.8373 140.146 27.64C141.136 28.424 142.358 28.816 143.814 28.816C145.588 28.816 147.016 28.2187 148.098 27.024L149.582 28.76C148.91 29.544 148.07 30.1413 147.062 30.552C146.073 30.9627 144.962 31.168 143.73 31.168C142.162 31.168 140.772 30.8507 139.558 30.216C138.345 29.5627 137.402 28.6573 136.73 27.5C136.077 26.3427 135.75 25.036 135.75 23.58C135.75 22.1427 136.068 20.8453 136.702 19.688C137.356 18.5307 138.242 17.6347 139.362 17C140.501 16.3467 141.78 16.02 143.198 16.02C144.617 16.02 145.877 16.3467 146.978 17C148.098 17.6347 148.966 18.5307 149.582 19.688C150.217 20.8453 150.534 22.1707 150.534 23.664ZM143.198 18.288C141.91 18.288 140.828 18.68 139.95 19.464C139.092 20.248 138.588 21.2747 138.438 22.544H147.958C147.809 21.2933 147.296 20.276 146.418 19.492C145.56 18.6893 144.486 18.288 143.198 18.288Z" fill="#405063"/>
<path d="M160.735 31.168C159.223 31.168 157.869 30.8413 156.675 30.188C155.499 29.5347 154.575 28.6387 153.903 27.5C153.231 26.3427 152.895 25.036 152.895 23.58C152.895 22.124 153.231 20.8267 153.903 19.688C154.575 18.5307 155.499 17.6347 156.675 17C157.869 16.3467 159.223 16.02 160.735 16.02C162.079 16.02 163.273 16.2907 164.319 16.832C165.383 17.3733 166.204 18.1573 166.783 19.184L164.739 20.5C164.272 19.7907 163.693 19.2587 163.003 18.904C162.312 18.5493 161.547 18.372 160.707 18.372C159.736 18.372 158.859 18.5867 158.075 19.016C157.309 19.4453 156.703 20.0613 156.255 20.864C155.825 21.648 155.611 22.5533 155.611 23.58C155.611 24.6253 155.825 25.5493 156.255 26.352C156.703 27.136 157.309 27.7427 158.075 28.172C158.859 28.6013 159.736 28.816 160.707 28.816C161.547 28.816 162.312 28.6387 163.003 28.284C163.693 27.9293 164.272 27.3973 164.739 26.688L166.783 27.976C166.204 29.0027 165.383 29.796 164.319 30.356C163.273 30.8973 162.079 31.168 160.735 31.168Z" fill="#405063"/>
<path d="M178.798 30.132C178.406 30.468 177.921 30.7293 177.342 30.916C176.764 31.084 176.166 31.168 175.55 31.168C174.057 31.168 172.9 30.7667 172.078 29.964C171.257 29.1613 170.846 28.0133 170.846 26.52V18.372H168.326V16.16H170.846V12.912H173.534V16.16H177.79V18.372H173.534V26.408C173.534 27.2107 173.73 27.8267 174.122 28.256C174.533 28.6853 175.112 28.9 175.858 28.9C176.68 28.9 177.38 28.6667 177.958 28.2L178.798 30.132Z" fill="#405063"/>
<path d="M206.816 11.4V31H204.52L192.76 16.384V31H189.96V11.4H192.256L204.016 26.016V11.4H206.816Z" fill="#405063"/>
<path d="M217.162 11.4V31H214.39V13.836H209.966V11.4H217.162Z" fill="#405063"/>
<path d="M87.492 44.688L84.336 51.756C84.08 52.348 83.784 52.768 83.448 53.016C83.112 53.264 82.708 53.388 82.236 53.388C81.932 53.388 81.648 53.34 81.384 53.244C81.12 53.148 80.892 53.004 80.7 52.812L81.096 52.176C81.416 52.496 81.8 52.656 82.248 52.656C82.536 52.656 82.78 52.576 82.98 52.416C83.188 52.256 83.38 51.984 83.556 51.6L83.832 50.988L81.012 44.688H81.9L84.276 50.052L86.652 44.688H87.492Z" fill="#405063"/>
<path d="M91.4561 51.06C90.8481 51.06 90.3001 50.924 89.8121 50.652C89.3241 50.372 88.9401 49.988 88.6601 49.5C88.3801 49.012 88.2401 48.46 88.2401 47.844C88.2401 47.228 88.3801 46.676 88.6601 46.188C88.9401 45.7 89.3241 45.32 89.8121 45.048C90.3001 44.776 90.8481 44.64 91.4561 44.64C92.0641 44.64 92.6121 44.776 93.1001 45.048C93.5881 45.32 93.9681 45.7 94.2401 46.188C94.5201 46.676 94.6601 47.228 94.6601 47.844C94.6601 48.46 94.5201 49.012 94.2401 49.5C93.9681 49.988 93.5881 50.372 93.1001 50.652C92.6121 50.924 92.0641 51.06 91.4561 51.06ZM91.4561 50.304C91.9041 50.304 92.3041 50.204 92.6561 50.004C93.0161 49.796 93.2961 49.504 93.4961 49.128C93.6961 48.752 93.7961 48.324 93.7961 47.844C93.7961 47.364 93.6961 46.936 93.4961 46.56C93.2961 46.184 93.0161 45.896 92.6561 45.696C92.3041 45.488 91.9041 45.384 91.4561 45.384C91.0081 45.384 90.6041 45.488 90.2441 45.696C89.8921 45.896 89.6121 46.184 89.4041 46.56C89.2041 46.936 89.1041 47.364 89.1041 47.844C89.1041 48.324 89.2041 48.752 89.4041 49.128C89.6121 49.504 89.8921 49.796 90.2441 50.004C90.6041 50.204 91.0081 50.304 91.4561 50.304Z" fill="#405063"/>
<path d="M102.448 44.688V51H101.632V49.848C101.408 50.232 101.1 50.532 100.708 50.748C100.316 50.956 99.8676 51.06 99.3636 51.06C98.5396 51.06 97.8876 50.832 97.4076 50.376C96.9356 49.912 96.6996 49.236 96.6996 48.348V44.688H97.5516V48.264C97.5516 48.928 97.7156 49.432 98.0436 49.776C98.3716 50.12 98.8396 50.292 99.4476 50.292C100.112 50.292 100.636 50.092 101.02 49.692C101.404 49.284 101.596 48.72 101.596 48V44.688H102.448Z" fill="#405063"/>
<path d="M106.01 45.924C106.21 45.5 106.506 45.18 106.898 44.964C107.298 44.748 107.79 44.64 108.374 44.64V45.468L108.17 45.456C107.506 45.456 106.986 45.66 106.61 46.068C106.234 46.476 106.046 47.048 106.046 47.784V51H105.194V44.688H106.01V45.924Z" fill="#405063"/>
<path d="M117.123 44.64C117.715 44.64 118.251 44.776 118.731 45.048C119.211 45.312 119.587 45.688 119.859 46.176C120.131 46.664 120.267 47.22 120.267 47.844C120.267 48.468 120.131 49.024 119.859 49.512C119.587 50 119.211 50.38 118.731 50.652C118.251 50.924 117.715 51.06 117.123 51.06C116.595 51.06 116.119 50.948 115.695 50.724C115.279 50.5 114.943 50.176 114.687 49.752V51H113.871V42.096H114.723V45.888C114.987 45.48 115.323 45.172 115.731 44.964C116.147 44.748 116.611 44.64 117.123 44.64ZM117.063 50.304C117.503 50.304 117.903 50.204 118.263 50.004C118.623 49.796 118.903 49.504 119.103 49.128C119.311 48.752 119.415 48.324 119.415 47.844C119.415 47.364 119.311 46.936 119.103 46.56C118.903 46.184 118.623 45.896 118.263 45.696C117.903 45.488 117.503 45.384 117.063 45.384C116.615 45.384 116.211 45.488 115.851 45.696C115.499 45.896 115.219 46.184 115.011 46.56C114.811 46.936 114.711 47.364 114.711 47.844C114.711 48.324 114.811 48.752 115.011 49.128C115.219 49.504 115.499 49.796 115.851 50.004C116.211 50.204 116.615 50.304 117.063 50.304Z" fill="#405063"/>
<path d="M127.86 48.108H122.58C122.628 48.764 122.88 49.296 123.336 49.704C123.792 50.104 124.368 50.304 125.064 50.304C125.456 50.304 125.816 50.236 126.144 50.1C126.472 49.956 126.756 49.748 126.996 49.476L127.476 50.028C127.196 50.364 126.844 50.62 126.42 50.796C126.004 50.972 125.544 51.06 125.04 51.06C124.392 51.06 123.816 50.924 123.312 50.652C122.816 50.372 122.428 49.988 122.148 49.5C121.868 49.012 121.728 48.46 121.728 47.844C121.728 47.228 121.86 46.676 122.124 46.188C122.396 45.7 122.764 45.32 123.228 45.048C123.7 44.776 124.228 44.64 124.812 44.64C125.396 44.64 125.92 44.776 126.384 45.048C126.848 45.32 127.212 45.7 127.476 46.188C127.74 46.668 127.872 47.22 127.872 47.844L127.86 48.108ZM124.812 45.372C124.204 45.372 123.692 45.568 123.276 45.96C122.868 46.344 122.636 46.848 122.58 47.472H127.056C127 46.848 126.764 46.344 126.348 45.96C125.94 45.568 125.428 45.372 124.812 45.372Z" fill="#405063"/>
<path d="M131.658 51.06C131.146 51.06 130.654 50.988 130.182 50.844C129.718 50.692 129.354 50.504 129.09 50.28L129.474 49.608C129.738 49.816 130.07 49.988 130.47 50.124C130.87 50.252 131.286 50.316 131.718 50.316C132.294 50.316 132.718 50.228 132.99 50.052C133.27 49.868 133.41 49.612 133.41 49.284C133.41 49.052 133.334 48.872 133.182 48.744C133.03 48.608 132.838 48.508 132.606 48.444C132.374 48.372 132.066 48.304 131.682 48.24C131.17 48.144 130.758 48.048 130.446 47.952C130.134 47.848 129.866 47.676 129.642 47.436C129.426 47.196 129.318 46.864 129.318 46.44C129.318 45.912 129.538 45.48 129.978 45.144C130.418 44.808 131.03 44.64 131.814 44.64C132.222 44.64 132.63 44.696 133.038 44.808C133.446 44.912 133.782 45.052 134.046 45.228L133.674 45.912C133.154 45.552 132.534 45.372 131.814 45.372C131.27 45.372 130.858 45.468 130.578 45.66C130.306 45.852 130.17 46.104 130.17 46.416C130.17 46.656 130.246 46.848 130.398 46.992C130.558 47.136 130.754 47.244 130.986 47.316C131.218 47.38 131.538 47.448 131.946 47.52C132.45 47.616 132.854 47.712 133.158 47.808C133.462 47.904 133.722 48.068 133.938 48.3C134.154 48.532 134.262 48.852 134.262 49.26C134.262 49.812 134.03 50.252 133.566 50.58C133.11 50.9 132.474 51.06 131.658 51.06Z" fill="#405063"/>
<path d="M139.521 50.616C139.361 50.76 139.161 50.872 138.921 50.952C138.689 51.024 138.445 51.06 138.189 51.06C137.597 51.06 137.141 50.9 136.821 50.58C136.501 50.26 136.341 49.808 136.341 49.224V45.408H135.213V44.688H136.341V43.308H137.193V44.688H139.113V45.408H137.193V49.176C137.193 49.552 137.285 49.84 137.469 50.04C137.661 50.232 137.933 50.328 138.285 50.328C138.461 50.328 138.629 50.3 138.789 50.244C138.957 50.188 139.101 50.108 139.221 50.004L139.521 50.616Z" fill="#405063"/>
<path d="M148.185 44.64C148.777 44.64 149.313 44.776 149.793 45.048C150.273 45.312 150.649 45.688 150.921 46.176C151.193 46.664 151.329 47.22 151.329 47.844C151.329 48.476 151.193 49.036 150.921 49.524C150.649 50.012 150.273 50.392 149.793 50.664C149.321 50.928 148.785 51.06 148.185 51.06C147.673 51.06 147.209 50.956 146.793 50.748C146.385 50.532 146.049 50.22 145.785 49.812V53.328H144.933V44.688H145.749V45.936C146.005 45.52 146.341 45.2 146.757 44.976C147.181 44.752 147.657 44.64 148.185 44.64ZM148.125 50.304C148.565 50.304 148.965 50.204 149.325 50.004C149.685 49.796 149.965 49.504 150.165 49.128C150.373 48.752 150.477 48.324 150.477 47.844C150.477 47.364 150.373 46.94 150.165 46.572C149.965 46.196 149.685 45.904 149.325 45.696C148.965 45.488 148.565 45.384 148.125 45.384C147.677 45.384 147.273 45.488 146.913 45.696C146.561 45.904 146.281 46.196 146.073 46.572C145.873 46.94 145.773 47.364 145.773 47.844C145.773 48.324 145.873 48.752 146.073 49.128C146.281 49.504 146.561 49.796 146.913 50.004C147.273 50.204 147.677 50.304 148.125 50.304Z" fill="#405063"/>
<path d="M154.241 45.924C154.441 45.5 154.737 45.18 155.129 44.964C155.529 44.748 156.021 44.64 156.605 44.64V45.468L156.401 45.456C155.737 45.456 155.217 45.66 154.841 46.068C154.465 46.476 154.277 47.048 154.277 47.784V51H153.425V44.688H154.241V45.924Z" fill="#405063"/>
<path d="M161.029 51.06C160.421 51.06 159.873 50.924 159.385 50.652C158.897 50.372 158.513 49.988 158.233 49.5C157.953 49.012 157.813 48.46 157.813 47.844C157.813 47.228 157.953 46.676 158.233 46.188C158.513 45.7 158.897 45.32 159.385 45.048C159.873 44.776 160.421 44.64 161.029 44.64C161.637 44.64 162.185 44.776 162.673 45.048C163.161 45.32 163.541 45.7 163.813 46.188C164.093 46.676 164.233 47.228 164.233 47.844C164.233 48.46 164.093 49.012 163.813 49.5C163.541 49.988 163.161 50.372 162.673 50.652C162.185 50.924 161.637 51.06 161.029 51.06ZM161.029 50.304C161.477 50.304 161.877 50.204 162.229 50.004C162.589 49.796 162.869 49.504 163.069 49.128C163.269 48.752 163.369 48.324 163.369 47.844C163.369 47.364 163.269 46.936 163.069 46.56C162.869 46.184 162.589 45.896 162.229 45.696C161.877 45.488 161.477 45.384 161.029 45.384C160.581 45.384 160.177 45.488 159.817 45.696C159.465 45.896 159.185 46.184 158.977 46.56C158.777 46.936 158.677 47.364 158.677 47.844C158.677 48.324 158.777 48.752 158.977 49.128C159.185 49.504 159.465 49.796 159.817 50.004C160.177 50.204 160.581 50.304 161.029 50.304Z" fill="#405063"/>
<path d="M165.397 53.388C165.133 53.388 164.885 53.352 164.653 53.28C164.413 53.216 164.217 53.116 164.065 52.98L164.365 52.332C164.613 52.548 164.941 52.656 165.349 52.656C165.685 52.656 165.941 52.556 166.117 52.356C166.301 52.156 166.393 51.86 166.393 51.468V44.688H167.245V51.468C167.245 52.06 167.085 52.528 166.765 52.872C166.445 53.216 165.989 53.388 165.397 53.388ZM166.825 43.296C166.649 43.296 166.501 43.236 166.381 43.116C166.261 42.996 166.201 42.852 166.201 42.684C166.201 42.524 166.261 42.384 166.381 42.264C166.501 42.144 166.649 42.084 166.825 42.084C167.001 42.084 167.149 42.144 167.269 42.264C167.389 42.376 167.449 42.512 167.449 42.672C167.449 42.848 167.389 42.996 167.269 43.116C167.149 43.236 167.001 43.296 166.825 43.296Z" fill="#405063"/>
<path d="M175.482 48.108H170.202C170.25 48.764 170.502 49.296 170.958 49.704C171.414 50.104 171.99 50.304 172.686 50.304C173.078 50.304 173.438 50.236 173.766 50.1C174.094 49.956 174.378 49.748 174.618 49.476L175.098 50.028C174.818 50.364 174.466 50.62 174.042 50.796C173.626 50.972 173.166 51.06 172.662 51.06C172.014 51.06 171.438 50.924 170.934 50.652C170.438 50.372 170.05 49.988 169.77 49.5C169.49 49.012 169.35 48.46 169.35 47.844C169.35 47.228 169.482 46.676 169.746 46.188C170.018 45.7 170.386 45.32 170.85 45.048C171.322 44.776 171.85 44.64 172.434 44.64C173.018 44.64 173.542 44.776 174.006 45.048C174.47 45.32 174.834 45.7 175.098 46.188C175.362 46.668 175.494 47.22 175.494 47.844L175.482 48.108ZM172.434 45.372C171.826 45.372 171.314 45.568 170.898 45.96C170.49 46.344 170.258 46.848 170.202 47.472H174.678C174.622 46.848 174.386 46.344 173.97 45.96C173.562 45.568 173.05 45.372 172.434 45.372Z" fill="#405063"/>
<path d="M180.204 51.06C179.58 51.06 179.02 50.924 178.524 50.652C178.036 50.38 177.652 50 177.372 49.512C177.092 49.016 176.952 48.46 176.952 47.844C176.952 47.228 177.092 46.676 177.372 46.188C177.652 45.7 178.036 45.32 178.524 45.048C179.02 44.776 179.58 44.64 180.204 44.64C180.748 44.64 181.232 44.748 181.656 44.964C182.088 45.172 182.428 45.48 182.676 45.888L182.04 46.32C181.832 46.008 181.568 45.776 181.248 45.624C180.928 45.464 180.58 45.384 180.204 45.384C179.748 45.384 179.336 45.488 178.968 45.696C178.608 45.896 178.324 46.184 178.116 46.56C177.916 46.936 177.816 47.364 177.816 47.844C177.816 48.332 177.916 48.764 178.116 49.14C178.324 49.508 178.608 49.796 178.968 50.004C179.336 50.204 179.748 50.304 180.204 50.304C180.58 50.304 180.928 50.228 181.248 50.076C181.568 49.924 181.832 49.692 182.04 49.38L182.676 49.812C182.428 50.22 182.088 50.532 181.656 50.748C181.224 50.956 180.74 51.06 180.204 51.06Z" fill="#405063"/>
<path d="M188.104 50.616C187.944 50.76 187.744 50.872 187.504 50.952C187.272 51.024 187.028 51.06 186.772 51.06C186.18 51.06 185.724 50.9 185.404 50.58C185.084 50.26 184.924 49.808 184.924 49.224V45.408H183.796V44.688H184.924V43.308H185.776V44.688H187.696V45.408H185.776V49.176C185.776 49.552 185.868 49.84 186.052 50.04C186.244 50.232 186.516 50.328 186.868 50.328C187.044 50.328 187.212 50.3 187.372 50.244C187.54 50.188 187.684 50.108 187.804 50.004L188.104 50.616Z" fill="#405063"/>
<path d="M199.012 48.108H193.732C193.78 48.764 194.032 49.296 194.488 49.704C194.944 50.104 195.52 50.304 196.216 50.304C196.608 50.304 196.968 50.236 197.296 50.1C197.624 49.956 197.908 49.748 198.148 49.476L198.628 50.028C198.348 50.364 197.996 50.62 197.572 50.796C197.156 50.972 196.696 51.06 196.192 51.06C195.544 51.06 194.968 50.924 194.464 50.652C193.968 50.372 193.58 49.988 193.3 49.5C193.02 49.012 192.88 48.46 192.88 47.844C192.88 47.228 193.012 46.676 193.276 46.188C193.548 45.7 193.916 45.32 194.38 45.048C194.852 44.776 195.38 44.64 195.964 44.64C196.548 44.64 197.072 44.776 197.536 45.048C198 45.32 198.364 45.7 198.628 46.188C198.892 46.668 199.024 47.22 199.024 47.844L199.012 48.108ZM195.964 45.372C195.356 45.372 194.844 45.568 194.428 45.96C194.02 46.344 193.788 46.848 193.732 47.472H198.208C198.152 46.848 197.916 46.344 197.5 45.96C197.092 45.568 196.58 45.372 195.964 45.372Z" fill="#405063"/>
<path d="M206.305 44.688L203.497 51H202.621L199.825 44.688H200.713L203.077 50.064L205.465 44.688H206.305Z" fill="#405063"/>
<path d="M213.185 48.108H207.905C207.953 48.764 208.205 49.296 208.661 49.704C209.117 50.104 209.693 50.304 210.389 50.304C210.781 50.304 211.141 50.236 211.469 50.1C211.797 49.956 212.081 49.748 212.321 49.476L212.801 50.028C212.521 50.364 212.169 50.62 211.745 50.796C211.329 50.972 210.869 51.06 210.365 51.06C209.717 51.06 209.141 50.924 208.637 50.652C208.141 50.372 207.753 49.988 207.473 49.5C207.193 49.012 207.053 48.46 207.053 47.844C207.053 47.228 207.185 46.676 207.449 46.188C207.721 45.7 208.089 45.32 208.553 45.048C209.025 44.776 209.553 44.64 210.137 44.64C210.721 44.64 211.245 44.776 211.709 45.048C212.173 45.32 212.537 45.7 212.801 46.188C213.065 46.668 213.197 47.22 213.197 47.844L213.185 48.108ZM210.137 45.372C209.529 45.372 209.017 45.568 208.601 45.96C208.193 46.344 207.961 46.848 207.905 47.472H212.381C212.325 46.848 212.089 46.344 211.673 45.96C211.265 45.568 210.753 45.372 210.137 45.372Z" fill="#405063"/>
<path d="M216.107 45.924C216.307 45.5 216.603 45.18 216.995 44.964C217.395 44.748 217.887 44.64 218.471 44.64V45.468L218.267 45.456C217.603 45.456 217.083 45.66 216.707 46.068C216.331 46.476 216.143 47.048 216.143 47.784V51H215.291V44.688H216.107V45.924Z" fill="#405063"/>
<circle cx="30" cy="30" r="30" fill="#4992E6"/>
<path d="M32.904 18.6V41H29.48L17.128 25.832V41H13V18.6H16.424L28.776 33.768V18.6H32.904Z" fill="white"/>
<path d="M43 18.5H47.5V41H43V18.5Z" fill="white"/>
<path d="M41.492 18.5V24H35.992L41.492 18.5Z" fill="#9BEBFF"/>
</svg>
