<svg width="36" height="53" viewBox="0 0 36 53" fill="none" xmlns="http://www.w3.org/2000/svg">
<path d="M35.2557 35.8813C27.3184 29.8738 25.3845 15.6593 25.3394 15.3075C25.3103 12.0089 24.4269 9.81168 22.8517 6.68477C21.3628 3.51522 19.9565 0.520508 17.8367 0.520508C15.717 0.520508 14.3107 3.51522 12.8218 6.68477C12.3195 7.9641 10.3753 10.6635 10.334 15.3075C10.289 15.655 8.35322 29.8738 0.417755 35.8834C0.289485 35.9806 0.184271 36.1122 0.11141 36.2665C0.0385494 36.4209 0.000285496 36.5932 0 36.7683V44.2311C6.45649e-05 44.4909 0.0836653 44.7418 0.235095 44.9365C0.386524 45.1312 0.59536 45.2565 0.822368 45.2887L7.5102 46.2386V47.4294C7.5102 47.7122 7.60911 47.9834 7.78516 48.1833C7.96122 48.3832 8.2 48.4956 8.44898 48.4956V51.6939C8.44898 51.9766 8.54788 52.2478 8.72394 52.4478C8.89999 52.6477 9.13877 52.76 9.38775 52.76H13.1429C13.3918 52.76 13.6306 52.6477 13.8067 52.4478C13.9827 52.2478 14.0816 51.9766 14.0816 51.6939V48.4956C14.3306 48.4956 14.5694 48.3832 14.7454 48.1833C14.9215 47.9834 15.0204 47.7122 15.0204 47.4294V46.3633H20.6531V47.4294C20.6531 47.7122 20.752 47.9834 20.928 48.1833C21.1041 48.3832 21.3429 48.4956 21.5918 48.4956V51.6939C21.5918 51.9766 21.6907 52.2478 21.8668 52.4478C22.0428 52.6477 22.2816 52.76 22.5306 52.76H26.2857C26.5347 52.76 26.7735 52.6477 26.9495 52.4478C27.1256 52.2478 27.2245 51.9766 27.2245 51.6939V48.4956C27.4735 48.4956 27.7122 48.3832 27.8883 48.1833C28.0644 47.9834 28.1633 47.7122 28.1633 47.4294V46.2386L34.8511 45.2887C35.0781 45.2565 35.2869 45.1312 35.4384 44.9365C35.5898 44.7418 35.6734 44.4909 35.6735 44.2311V36.7683C35.6735 36.5928 35.6354 36.4201 35.5625 36.2654C35.4896 36.1106 35.3842 35.9787 35.2557 35.8813ZM33.7959 37.328V38.9006H28.1529C28.0285 37.8956 27.7176 36.9322 27.2409 36.0739C26.7641 35.2156 26.1323 34.4821 25.3873 33.9218C25.3751 33.9133 25.3591 33.8983 25.3469 33.8898V23.5922C26.849 28.2256 29.4456 33.8152 33.7959 37.328ZM22.5306 45.2972V39.263C22.6125 38.5596 22.8216 37.8831 23.1447 37.2758C23.4678 36.6685 23.8979 36.1437 24.4082 35.7342C26.6086 37.6649 26.2069 39.1724 26.2857 39.9667V46.3633H22.5306V45.2972ZM17.8367 2.65273C18.7145 2.65273 19.8833 4.92249 20.8314 6.91718H14.842C15.7902 4.92249 16.959 2.65273 17.8367 2.65273ZM13.1429 39.263V46.3633H9.38775V39.263C9.46964 38.5596 9.6787 37.8831 10.0018 37.2758C10.3249 36.6685 10.7551 36.1437 11.2653 35.7342C11.3592 35.8408 13.1429 37.2715 13.1429 39.263ZM1.87755 37.328C6.22784 33.8099 8.82449 28.2256 10.3265 23.5922V33.8898C9.55979 34.4351 8.90997 35.1679 8.42451 36.0348C7.93904 36.9017 7.6302 37.8808 7.52053 38.9006H1.87755V37.328ZM1.87755 43.2897V41.0328H7.5102V44.0893L1.87755 43.2897ZM12.2041 50.6278H10.3265V48.4956H12.2041V50.6278ZM18.7755 44.2311V34.6361C18.7755 34.3534 18.6766 34.0822 18.5005 33.8822C18.3245 33.6823 18.0857 33.57 17.8367 33.57C17.5878 33.57 17.349 33.6823 17.1729 33.8822C16.9969 34.0822 16.898 34.3534 16.898 34.6361V44.2311H15.0204V39.263C14.9371 38.1845 14.6406 37.1412 14.153 36.2109C13.6654 35.2806 12.9992 34.4872 12.2041 33.8898V15.4461C12.2144 13.1835 12.7786 10.9687 13.8338 9.04941H21.8397C22.8992 10.9665 23.4639 13.1827 23.4694 15.4461V33.8898C22.6664 34.4776 21.9943 35.2686 21.5056 36.2009C21.017 37.1331 20.7252 38.1812 20.6531 39.263V44.2311H18.7755ZM25.3469 50.6278H23.4694V48.4956H25.3469V50.6278ZM33.7959 43.2897L28.1633 44.0893V41.0328H33.7959V43.2897Z" fill="#9570EE"/>
<path d="M21.5919 16.5125C21.5919 15.3815 21.1962 14.2968 20.492 13.4971C19.7878 12.6973 18.8327 12.248 17.8368 12.248C16.8408 12.248 15.8857 12.6973 15.1815 13.4971C14.4773 14.2968 14.0817 15.3815 14.0817 16.5125C14.0817 16.7953 14.1806 17.0664 14.3566 17.2664C14.5327 17.4663 14.7715 17.5786 15.0204 17.5786H20.6531C20.9021 17.5786 21.1408 17.4663 21.3169 17.2664C21.493 17.0664 21.5919 16.7953 21.5919 16.5125ZM16.2117 15.4464C16.3767 15.1228 16.6136 14.8541 16.8988 14.6673C17.1841 14.4805 17.5075 14.3822 17.8368 14.3822C18.166 14.3822 18.4895 14.4805 18.7747 14.6673C19.0599 14.8541 19.2969 15.1228 19.4618 15.4464H16.2117Z" fill="#9570EE"/>
</svg>
