<svg width="34" height="53" viewBox="0 0 34 53" fill="none" xmlns="http://www.w3.org/2000/svg">
<path d="M31.895 51.9518L32.6555 48.4949H32.862C32.9937 48.4957 33.1239 48.465 33.2444 48.4049C33.3649 48.3448 33.473 48.2565 33.5615 48.1459C33.65 48.0353 33.7171 47.9049 33.7583 47.7629C33.7996 47.621 33.8141 47.4708 33.801 47.3221C33.6892 46.0244 33.6038 44.3802 33.5127 42.638C33.4291 41.0119 33.3371 39.2579 33.2113 37.489C32.8405 32.2387 32.1137 25.8667 29.7749 23.2149C29.5988 23.015 29.3601 22.9027 29.1111 22.9027C28.8621 22.9027 28.6234 23.015 28.4473 23.2149C26.5958 25.3176 25.7517 29.5901 25.2907 34.1974C24.564 34.0631 23.9189 33.9159 23.3668 33.757C23.4297 32.0851 23.4729 30.2618 23.4729 28.2359C23.4729 5.53516 17.6686 0.879848 17.4217 0.692186C17.3886 0.671487 17.3545 0.65332 17.3193 0.637806C17.289 0.618933 17.2576 0.602197 17.2254 0.587692C17.0154 0.498113 16.7839 0.498113 16.5738 0.587692C16.5416 0.602197 16.5103 0.618933 16.4799 0.637806C16.4448 0.65332 16.4106 0.671487 16.3776 0.692186C16.1325 0.879848 10.3282 5.53516 10.3282 28.2359C10.3282 30.2618 10.3695 32.0873 10.4362 33.7624C9.88596 33.9212 9.24374 34.0673 8.51985 34.2017C8.03912 29.541 7.17626 25.2813 5.35853 23.2192C5.18246 23.0193 4.94369 22.907 4.69472 22.907C4.44576 22.907 4.20698 23.0193 4.03091 23.2192C1.68364 25.8848 0.979453 31.9337 0.603888 37.4975C0.505303 38.9839 0.429251 40.4617 0.356955 41.8638C0.253675 43.8972 0.155089 45.8154 0.00580209 47.3103C-0.00886181 47.4594 0.0043459 47.6104 0.044561 47.7533C0.0847762 47.8962 0.151094 48.0278 0.239179 48.1396C0.327265 48.2515 0.435136 48.3409 0.555742 48.4021C0.676347 48.4633 0.806973 48.495 0.93908 48.4949H1.1447L1.90616 51.9518C1.95684 52.1826 2.07401 52.3875 2.23904 52.5339C2.40406 52.6804 2.60747 52.7599 2.8169 52.76H6.57254C6.78198 52.7599 6.98538 52.6804 7.15041 52.5339C7.31543 52.3875 7.4326 52.1826 7.48329 51.9518L8.24474 48.4949H8.45037C8.58198 48.4957 8.71226 48.465 8.83276 48.4049C8.95326 48.3448 9.06128 48.2565 9.14981 48.1459C9.23834 48.0353 9.30542 47.9049 9.34667 47.7629C9.38792 47.621 9.40244 47.4708 9.38928 47.3221C9.26065 45.8879 9.16769 43.91 9.07756 42.1485C9.69229 41.726 10.3295 41.3471 10.9854 41.014C11.217 43.2872 11.6376 45.5303 12.2417 47.7134L13.175 51.9518C13.2256 52.1822 13.3425 52.3868 13.5071 52.5332C13.6717 52.6797 13.8747 52.7595 14.0838 52.76H19.7173C19.9267 52.7599 20.1301 52.6804 20.2952 52.5339C20.4602 52.3875 20.5774 52.1826 20.628 51.9518L21.5519 47.7518C22.1786 45.5623 22.6022 43.3045 22.8157 41.0151C23.4817 41.3508 24.1281 41.7347 24.7508 42.1645C24.6569 44.0838 24.563 45.8901 24.4184 47.3103C24.4038 47.4593 24.4169 47.6102 24.4571 47.753C24.4973 47.8959 24.5635 48.0275 24.6515 48.1392C24.7395 48.251 24.8472 48.3405 24.9677 48.4018C25.0882 48.4631 25.2187 48.4948 25.3508 48.4949H25.5573L26.3178 51.9518C26.3685 52.1826 26.4857 52.3875 26.6507 52.5339C26.8157 52.6804 27.0191 52.7599 27.2286 52.76H30.9842C31.1937 52.7599 31.3971 52.6804 31.5621 52.5339C31.7271 52.3875 31.8443 52.1826 31.895 51.9518ZM30.0453 40.5364L31.4537 39.4701C31.5222 40.6003 31.5804 41.7092 31.6349 42.7616C31.7016 44.0412 31.7654 45.2695 31.8396 46.3582H30.0453V40.5364ZM29.1064 25.7153C30.4547 28.2946 31.0002 33.1717 31.2922 37.0337L28.5891 39.0745C28.4594 39.1717 28.353 39.3039 28.2795 39.4593C28.2059 39.6147 28.1674 39.7884 28.1675 39.9648V46.3624H26.3836C26.4774 45.0829 26.5544 43.6243 26.6324 42.0974C26.9178 36.5379 27.2962 29.1295 29.1064 25.7174V25.7153ZM21.5951 28.2359C21.5951 33.4969 21.2637 41.3606 19.9746 46.3624H17.8395V23.7747C18.3883 23.5575 18.864 23.1518 19.2007 22.6138C19.5373 22.0758 19.7182 21.4321 19.7182 20.7721C19.7182 20.1121 19.5373 19.4684 19.2007 18.9304C18.864 18.3923 18.3883 17.9866 17.8395 17.7695V4.61284C19.3859 7.61651 21.5951 14.3404 21.5951 28.2359ZM16.9006 19.7058C17.0863 19.7058 17.2678 19.7683 17.4222 19.8855C17.5766 20.0027 17.6969 20.1692 17.768 20.364C17.8391 20.5589 17.8577 20.7733 17.8214 20.9801C17.7852 21.1869 17.6958 21.3769 17.5645 21.526C17.4332 21.6752 17.2659 21.7767 17.0837 21.8179C16.9016 21.859 16.7128 21.8379 16.5413 21.7572C16.3697 21.6765 16.2231 21.5398 16.1199 21.3645C16.0167 21.1891 15.9617 20.983 15.9617 20.7721C15.9617 20.4893 16.0606 20.2181 16.2367 20.0181C16.4127 19.8182 16.6515 19.7058 16.9006 19.7058ZM15.9617 4.60857V17.7695C15.4128 17.9866 14.9371 18.3923 14.6004 18.9304C14.2638 19.4684 14.0829 20.1121 14.0829 20.7721C14.0829 21.4321 14.2638 22.0758 14.6004 22.6138C14.9371 23.1518 15.4128 23.5575 15.9617 23.7747V46.3624H13.8313C12.5243 41.3169 12.206 33.4756 12.206 28.2359C12.206 14.3276 14.419 7.60584 15.9617 4.60857ZM4.69472 25.7206C6.93027 30.0209 7.05139 40.8701 7.42695 46.3603H5.63363V39.9648C5.63366 39.7893 5.59553 39.6165 5.52265 39.4618C5.44976 39.307 5.34437 39.1751 5.21582 39.0777L2.52021 37.0369C2.79812 33.1834 3.33236 28.3138 4.69472 25.7227V25.7206ZM1.97188 46.3624C2.07141 45.052 2.14934 43.5518 2.22914 41.9907C2.27046 41.1782 2.31365 40.338 2.36247 39.4871L3.75581 40.5353V46.3624H1.97188ZM5.83644 50.6275H3.55019L3.08074 48.4949H6.30871L5.83644 50.6275ZM8.94236 39.7761C8.92733 39.5149 8.91043 39.243 8.89353 38.954C8.84001 38.0807 8.77898 37.2032 8.70575 36.3289C9.37707 36.2063 9.9883 36.073 10.5347 35.928C10.5958 36.9633 10.669 37.9176 10.7488 38.8069C10.1332 39.0942 9.53118 39.4177 8.94517 39.7761H8.94236ZM18.984 50.6275H14.8171L14.3477 48.4949H19.4535L18.984 50.6275ZM23.2438 36.1018C23.2438 36.042 23.2523 35.9877 23.256 35.928C23.8031 36.0701 24.4134 36.2038 25.0869 36.3289C24.993 37.5018 24.9123 38.7514 24.8531 39.7761C24.2655 39.4181 23.6619 39.095 23.0448 38.8079C23.119 37.9763 23.1847 37.0635 23.2438 36.1018ZM30.2509 50.6275H27.9619L27.4924 48.4949H30.7204L30.2509 50.6275Z" fill="#FF56A9"/>
</svg>
