<svg width="22" height="16" viewBox="0 0 22 16" fill="none" xmlns="http://www.w3.org/2000/svg">
<path d="M7.32501 15.243C7.52361 15.4345 7.78926 15.5407 8.06512 15.5388C8.34099 15.5369 8.60517 15.4272 8.80115 15.233C8.99714 15.0389 9.10936 14.7757 9.11382 14.4999C9.11828 14.224 9.01462 13.9574 8.82501 13.757L4.05201 8.98403L20.71 8.98403C20.8482 8.98469 20.9852 8.95796 21.113 8.90538C21.2408 8.85279 21.3569 8.7754 21.4547 8.67768C21.5524 8.57995 21.6298 8.46383 21.6824 8.33601C21.7349 8.2082 21.7617 8.07123 21.761 7.93303C21.7622 7.79397 21.7359 7.65604 21.6837 7.52715C21.6315 7.39826 21.5544 7.28094 21.4567 7.18192C21.3591 7.08289 21.2429 7.0041 21.1147 6.95007C20.9866 6.89603 20.8491 6.86781 20.71 6.86703L4.05301 6.86703L8.82601 2.10803C9.02101 1.90707 9.13007 1.63805 9.13007 1.35803C9.13007 1.07801 9.02101 0.808995 8.82601 0.60803C8.72818 0.508373 8.61146 0.429214 8.48269 0.375175C8.35391 0.321137 8.21566 0.293305 8.07601 0.293305C7.93636 0.293305 7.7981 0.321137 7.66933 0.375175C7.54056 0.429214 7.42384 0.508373 7.32601 0.60803L0.751009 7.18203C0.651392 7.27844 0.572182 7.3939 0.518085 7.52154C0.463989 7.64918 0.436111 7.7864 0.436111 7.92503C0.436111 8.06366 0.463989 8.20088 0.518085 8.32852C0.572182 8.45616 0.651392 8.57162 0.751009 8.66803L7.32501 15.243Z" fill="white"/>
</svg>
