<svg width="22" height="16" viewBox="0 0 22 16" fill="none" xmlns="http://www.w3.org/2000/svg">
<path d="M14.872 0.305065C14.6734 0.113587 14.4078 0.00743013 14.1319 0.00930168C13.856 0.0111732 13.5919 0.120925 13.3959 0.31508C13.1999 0.509235 13.0877 0.772375 13.0832 1.04821C13.0787 1.32405 13.1824 1.59068 13.372 1.79107L18.145 6.56407H1.48701C1.34872 6.5634 1.21168 6.59017 1.0838 6.64281C0.95592 6.69546 0.83975 6.77294 0.74201 6.87077C0.644271 6.9686 0.5669 7.08485 0.514376 7.21278C0.461852 7.3407 0.435218 7.47778 0.436013 7.61607C0.434826 7.75512 0.461092 7.89305 0.513305 8.02194C0.565518 8.15083 0.642651 8.26815 0.740285 8.36718C0.837919 8.46621 0.954135 8.545 1.08227 8.59903C1.21041 8.65306 1.34795 8.68128 1.48701 8.68207H18.144L13.371 13.4411C13.176 13.642 13.0669 13.911 13.0669 14.1911C13.0669 14.4711 13.176 14.7401 13.371 14.9411C13.4688 15.0407 13.5856 15.1199 13.7143 15.1739C13.8431 15.228 13.9814 15.2558 14.121 15.2558C14.2607 15.2558 14.3989 15.228 14.5277 15.1739C14.6565 15.1199 14.7732 15.0407 14.871 14.9411L21.446 8.36607C21.5456 8.26965 21.6248 8.15419 21.6789 8.02655C21.733 7.89891 21.7609 7.7617 21.7609 7.62307C21.7609 7.48443 21.733 7.34722 21.6789 7.21958C21.6248 7.09194 21.5456 6.97648 21.446 6.88007L14.872 0.305065Z" fill="white"/>
</svg>
