<svg width="27" height="53" viewBox="0 0 27 53" fill="none" xmlns="http://www.w3.org/2000/svg">
<path d="M24.6826 33.3641L24.6526 33.3058C24.5877 33.1178 24.4744 32.9564 24.3274 32.8426C24.1805 32.7288 24.0068 32.6679 23.829 32.6679C22.884 32.6753 21.9416 32.7799 21.0133 32.9803C21.1141 31.388 21.1751 29.6239 21.1751 27.6449C21.1914 24.879 20.9572 22.1186 20.4763 19.4071C18.9379 10.9332 15.3199 7.11775 14.0982 6.03881V1.52511C14.0982 1.25868 14.005 1.00315 13.8391 0.81475C13.6732 0.62635 13.4482 0.520508 13.2136 0.520508C12.979 0.520508 12.754 0.62635 12.5881 0.81475C12.4222 1.00315 12.329 1.25868 12.329 1.52511V6.03881C11.1073 7.11775 7.48924 10.9332 5.95089 19.4001C5.46957 22.1138 5.23539 24.8767 5.25205 27.6449C5.25205 29.6199 5.31397 31.387 5.41835 32.9813C4.4886 32.7801 3.54467 32.6752 2.5982 32.6679C2.42036 32.6679 2.24666 32.7288 2.09975 32.8426C1.95283 32.9564 1.83953 33.1178 1.77462 33.3058L1.74454 33.3641C-0.221074 37.2047 -0.532459 43.6271 0.844889 51.9413C0.882125 52.1664 0.986028 52.3704 1.13936 52.5193C1.2927 52.6683 1.48626 52.7532 1.68793 52.76H1.71358C1.91106 52.7602 2.1029 52.6853 2.25857 52.5473C2.41423 52.4093 2.52476 52.2161 2.57255 51.9985C3.47928 47.8706 4.11797 45.7368 4.76109 44.7402C5.87837 44.8753 6.98121 45.1351 8.05363 45.5158L8.81705 48.9847C8.8648 49.2021 8.9752 49.3952 9.13068 49.5332C9.28616 49.6711 9.4778 49.7461 9.67513 49.7462H16.7521C16.9494 49.7461 17.141 49.6711 17.2965 49.5332C17.452 49.3952 17.5624 49.2021 17.6101 48.9847L18.3736 45.5158C19.4459 45.1348 20.5488 44.875 21.6661 44.7402C22.3092 45.7368 22.9479 47.8706 23.8546 51.9985C23.9024 52.2161 24.013 52.4093 24.1686 52.5473C24.3243 52.6853 24.5161 52.7602 24.7136 52.76H24.7393C24.9409 52.7532 25.1345 52.6683 25.2878 52.5193C25.4412 52.3704 25.5451 52.1664 25.5823 51.9413C26.9596 43.6271 26.6483 37.2047 24.6826 33.3641ZM13.2136 27.6449C12.8637 27.6449 12.5216 27.527 12.2307 27.3062C11.9397 27.0855 11.7129 26.7717 11.579 26.4045C11.4451 26.0374 11.4101 25.6334 11.4784 25.2437C11.5466 24.8539 11.7151 24.4959 11.9626 24.2149C12.21 23.9339 12.5252 23.7426 12.8684 23.665C13.2116 23.5875 13.5674 23.6273 13.8906 23.7794C14.2139 23.9315 14.4903 24.189 14.6847 24.5194C14.8791 24.8498 14.9828 25.2383 14.9828 25.6357C14.9828 26.1685 14.7964 26.6796 14.4646 27.0564C14.1328 27.4332 13.6828 27.6449 13.2136 27.6449ZM14.0982 29.5114C14.9321 29.2669 15.6588 28.6854 16.1422 27.8759C16.6256 27.0664 16.8324 26.0845 16.7239 25.1143C16.6153 24.144 16.1989 23.252 15.5527 22.6054C14.9065 21.9589 14.0748 21.6022 13.2136 21.6022C12.3524 21.6022 11.5207 21.9589 10.8745 22.6054C10.2282 23.252 9.81185 24.144 9.70333 25.1143C9.59481 26.0845 9.80162 27.0664 10.285 27.8759C10.7683 28.6854 11.4951 29.2669 12.329 29.5114V43.7186H9.30978C8.5844 42.1333 7.02128 37.5593 7.02128 27.6449C7.01018 25.2877 7.18575 22.9341 7.54586 20.6126H10.5597C10.7241 20.6127 10.8853 20.5608 11.0251 20.4626C11.165 20.3645 11.278 20.2241 11.3515 20.0571L11.9911 18.6034H14.4361L15.0757 20.0571C15.1492 20.2241 15.2622 20.3645 15.402 20.4626C15.5419 20.5608 15.7031 20.6127 15.8674 20.6126H18.8813C19.2414 22.9341 19.417 25.2877 19.4059 27.6449C19.4059 30.1443 19.3104 32.2962 19.1564 34.1447V34.1567C18.6796 39.6579 17.6898 42.4949 17.1218 43.7186H14.0982V29.5114ZM13.2136 7.81194C14.3185 8.87782 17.0758 12.0855 18.5027 18.6004H16.4141L15.779 17.1497C15.7052 16.982 15.5915 16.841 15.4508 16.7429C15.3101 16.6447 15.148 16.5932 14.9828 16.5942H11.4444C11.28 16.5941 11.1188 16.646 10.979 16.7442C10.8391 16.8423 10.7261 16.9827 10.6526 17.1497L10.0131 18.6034H7.92447C9.35224 12.0855 12.1105 8.87883 13.2136 7.81495V7.81194ZM4.36743 42.714C4.13284 42.714 3.90787 42.8199 3.74201 43.0083C2.89866 44.147 2.29562 45.4895 1.97897 46.9333C1.49154 41.6189 1.87901 37.3735 3.12012 34.6871C3.94718 34.731 4.76937 34.8557 5.57759 35.0599C5.79574 37.8247 6.32431 40.5465 7.15043 43.159C6.23965 42.8969 5.30653 42.7477 4.36743 42.714ZM16.0612 47.737H10.366L9.92371 45.7278H16.5035L16.0612 47.737ZM24.4473 46.9333C24.1313 45.4885 23.5286 44.1449 22.6852 43.0053C22.5189 42.818 22.294 42.7132 22.0598 42.714C21.1257 42.7483 20.1977 42.8972 19.2918 43.158C20.1203 40.548 20.6452 37.8262 20.8531 35.0619C21.6599 34.858 22.4806 34.7337 23.3062 34.6902C24.5482 37.3765 24.9348 41.6219 24.4482 46.9333H24.4473Z" fill="#489AFF"/>
</svg>
